<?xml version="1.0" encoding="UTF-8" standalone="no"?>
<!-- Created with Inkscape (http://www.inkscape.org/) -->

<svg
   width="512"
   height="512"
   viewBox="0 0 512 512"
   version="1.1"
   id="svg1"
   sodipodi:docname="icon_audio.svg"
   inkscape:version="1.3.2 (091e20e, 2023-11-25, custom)"
   inkscape:export-filename="wear\src\main\res\drawable\icon_play.svg"
   inkscape:export-xdpi="96"
   inkscape:export-ydpi="96"
   xmlns:inkscape="http://www.inkscape.org/namespaces/inkscape"
   xmlns:sodipodi="http://sodipodi.sourceforge.net/DTD/sodipodi-0.dtd"
   xmlns="http://www.w3.org/2000/svg"
   xmlns:svg="http://www.w3.org/2000/svg">
  <sodipodi:namedview
     id="namedview1"
     pagecolor="#000000"
     bordercolor="#000000"
     borderopacity="0.25"
     inkscape:showpageshadow="2"
     inkscape:pageopacity="0.0"
     inkscape:pagecheckerboard="0"
     inkscape:deskcolor="#d1d1d1"
     inkscape:document-units="px"
     inkscape:zoom="0.56140411"
     inkscape:cx="178.12481"
     inkscape:cy="250.26536"
     inkscape:window-width="1920"
     inkscape:window-height="1009"
     inkscape:window-x="-8"
     inkscape:window-y="-8"
     inkscape:window-maximized="1"
     inkscape:current-layer="layer1" />
  <defs
     id="defs1">
    <linearGradient
       id="linearGradient1">
      <stop
         style="stop-color:#2bd2e3;stop-opacity:1;"
         offset="0"
         id="stop5" />
      <stop
         style="stop-color:#000000;stop-opacity:0;"
         offset="1"
         id="stop6" />
    </linearGradient>
  </defs>
  <g
     inkscape:label="Layer 1"
     inkscape:groupmode="layer"
     id="layer1">
    <path
       id="rect2"
       style="fill:#ffffff;stroke-width:47.6861"
       d="m 143,206 h 75 l 50,-50 v 200 l -50,-50 h -75 z"
       sodipodi:nodetypes="ccccccc" />
    <path
       id="path2"
       style="fill:none;stroke:#ffffff;stroke-width:11.4641;stroke-dasharray:none"
       d="m 363.63538,255.51824 c 0,50.6516 -32.21428,108.86599 -26.34233,91.71284 4.71186,-13.76432 26.23505,-41.06123 26.23505,-91.71284 0,-50.65161 -33.02377,-105.19032 -26.23505,-91.71284 6.54478,12.99322 26.34233,41.06123 26.34233,91.71284 z"
       sodipodi:nodetypes="sssss" />
    <path
       id="path2-9"
       style="fill:none;stroke:#ffffff;stroke-width:5.73205;stroke-dasharray:none"
       d="m 298.96734,255.75911 c 0,25.32579 -16.10714,54.43298 -13.17116,45.85641 2.35593,-6.88216 13.11752,-20.53061 13.11752,-45.85641 0,-25.3258 -16.51188,-52.59515 -13.11752,-45.85641 3.27239,6.49661 13.17116,20.53061 13.17116,45.85641 z"
       sodipodi:nodetypes="sssss" />
    <path
       id="path2-9-8"
       style="fill:none;stroke:#ffffff;stroke-width:8.5981;stroke-dasharray:none"
       d="m 330.73987,255.63867 c 0,37.98868 -24.1607,81.64946 -19.75675,68.78461 3.53391,-10.32324 19.67629,-30.79592 19.67629,-68.78461 0,-37.98869 -24.76781,-78.89271 -19.67629,-68.78461 4.90859,9.74491 19.75675,30.79592 19.75675,68.78461 z"
       sodipodi:nodetypes="sssss" />
  </g>
</svg>
